<svg xmlns="http://www.w3.org/2000/svg" xmlns:xlink="http://www.w3.org/1999/xlink" width="500" zoomAndPan="magnify" viewBox="0 0 375 374.999991" height="500" preserveAspectRatio="xMidYMid meet" version="1.0"><defs><g/><clipPath id="4ac0653513"><rect x="0" width="298" y="0" height="375"/></clipPath><clipPath id="ccd8372301"><path d="M 184 237 L 364.835938 237 L 364.835938 358.867188 L 184 358.867188 Z M 184 237 " clip-rule="nonzero"/></clipPath><clipPath id="98ada76844"><path d="M 10.085938 237 L 192 237 L 192 358.867188 L 10.085938 358.867188 Z M 10.085938 237 " clip-rule="nonzero"/></clipPath><clipPath id="f8db569601"><path d="M 42.90625 38.78125 L 167 38.78125 L 167 163 L 42.90625 163 Z M 42.90625 38.78125 " clip-rule="nonzero"/></clipPath></defs><rect x="-37.5" width="450" fill="#ffffff" y="-37.499999" height="449.999989" fill-opacity="1"/><rect x="-37.5" width="450" fill="#ffffff" y="-37.499999" height="449.999989" fill-opacity="1"/><g transform="matrix(1, 0, 0, 1, 38, 0)"><g clip-path="url(#4ac0653513)"><g fill="#ff914d" fill-opacity="1"><g transform="translate(2.715377, 352.08661)"><g><path d="M 203.96875 -171.890625 C 216.09375 -169.972656 227.179688 -165.023438 237.234375 -157.046875 C 247.296875 -149.066406 255.28125 -139.171875 261.1875 -127.359375 C 267.09375 -115.546875 270.046875 -102.9375 270.046875 -89.53125 C 270.046875 -72.613281 265.734375 -57.375 257.109375 -43.8125 C 248.492188 -30.25 235.96875 -19.554688 219.53125 -11.734375 C 203.09375 -3.910156 183.703125 0 161.359375 0 L 36.875 0 L 36.875 -333.71875 L 156.5625 -333.71875 C 179.226562 -333.71875 198.539062 -329.96875 214.5 -322.46875 C 230.457031 -314.96875 242.425781 -304.832031 250.40625 -292.0625 C 258.382812 -279.300781 262.375 -264.9375 262.375 -248.96875 C 262.375 -229.175781 257.023438 -212.816406 246.328125 -199.890625 C 235.640625 -186.960938 221.519531 -177.628906 203.96875 -171.890625 Z M 80.4375 -189.609375 L 153.6875 -189.609375 C 174.125 -189.609375 189.925781 -194.394531 201.09375 -203.96875 C 212.269531 -213.539062 217.859375 -226.785156 217.859375 -243.703125 C 217.859375 -260.617188 212.269531 -273.863281 201.09375 -283.4375 C 189.925781 -293.019531 173.804688 -297.8125 152.734375 -297.8125 L 80.4375 -297.8125 Z M 157.53125 -35.90625 C 179.226562 -35.90625 196.140625 -41.007812 208.265625 -51.21875 C 220.398438 -61.4375 226.46875 -75.644531 226.46875 -93.84375 C 226.46875 -112.351562 220.082031 -126.953125 207.3125 -137.640625 C 194.550781 -148.335938 177.476562 -153.6875 156.09375 -153.6875 L 80.4375 -153.6875 L 80.4375 -35.90625 Z M 157.53125 -35.90625 "/></g></g></g></g></g><g clip-path="url(#ccd8372301)"><path fill="#000000" d="M 186.699219 260.460938 C 194.183594 259.699219 205.992188 255.992188 222.121094 249.34375 C 213.246094 259.792969 208.453125 266.464844 207.738281 269.359375 C 205.519531 276.054688 205.050781 282.796875 206.332031 289.574219 C 209.386719 299.972656 219.148438 304.140625 235.613281 302.066406 C 253.65625 299.257812 272.808594 292.875 293.070312 282.917969 C 315.621094 272.074219 338.675781 257.046875 362.234375 237.839844 C 363.984375 237.074219 364.878906 237.234375 364.921875 238.3125 C 362.164062 246.339844 348.355469 262.984375 323.507812 288.246094 C 307.023438 304.207031 289.925781 318.441406 272.214844 330.957031 C 246.507812 349.0625 217.101562 358.328125 184.003906 358.75 Z M 186.699219 260.460938 " fill-opacity="1" fill-rule="nonzero"/></g><g clip-path="url(#98ada76844)"><path fill="#000000" d="M 188.402344 260.460938 C 180.917969 259.703125 169.109375 256.003906 152.976562 249.367188 C 161.855469 259.808594 166.65625 266.480469 167.371094 269.371094 C 169.59375 276.066406 170.066406 282.808594 168.789062 289.585938 C 165.742188 299.988281 155.984375 304.160156 139.515625 302.097656 C 121.472656 299.300781 102.316406 292.933594 82.050781 282.988281 C 59.492188 272.160156 36.425781 257.148438 12.855469 237.953125 C 11.105469 237.191406 10.207031 237.347656 10.164062 238.429688 C 12.933594 246.453125 26.75 263.089844 51.613281 288.335938 C 68.109375 304.285156 85.214844 318.511719 102.933594 331.015625 C 128.652344 349.101562 158.066406 358.347656 191.164062 358.75 Z M 188.402344 260.460938 " fill-opacity="1" fill-rule="nonzero"/></g><g clip-path="url(#f8db569601)"><path fill="#000000" d="M 98.140625 39.253906 C 96.375 39.429688 94.605469 39.722656 92.839844 40.074219 C 92.25 40.191406 91.601562 40.308594 91.011719 40.425781 C 90.011719 40.601562 89.011719 40.898438 88.007812 41.191406 C 84.652344 42.128906 81.292969 43.421875 78.113281 44.890625 C 78.050781 44.949219 77.992188 44.949219 77.875 45.007812 C 76.875 45.476562 75.929688 45.949219 74.988281 46.476562 C 71.453125 48.414062 68.15625 50.761719 65.09375 53.289062 C 62.792969 55.167969 60.671875 57.28125 58.671875 59.453125 C 58.375 59.808594 58.023438 60.160156 57.726562 60.511719 C 55.84375 62.742188 54.074219 65.09375 52.542969 67.558594 C 51.304688 69.4375 50.246094 71.4375 49.246094 73.492188 C 48.359375 75.3125 47.59375 77.132812 46.886719 79.011719 C 46.417969 80.363281 45.945312 81.714844 45.53125 83.0625 C 44.238281 87.351562 43.53125 91.753906 43.175781 96.21875 C 43.058594 97.394531 43.058594 98.507812 43 99.683594 C 43 99.800781 43 99.859375 43 99.976562 C 42.941406 103.675781 43.292969 107.378906 43.882812 111.019531 C 44.058594 112.253906 44.355469 113.542969 44.648438 114.777344 C 45.121094 116.773438 45.710938 118.710938 46.359375 120.648438 C 46.59375 121.355469 46.886719 122.058594 47.125 122.765625 C 47.59375 123.878906 48.066406 125.054688 48.539062 126.113281 C 48.65625 126.40625 48.773438 126.699219 48.949219 126.992188 C 49.894531 128.988281 50.953125 130.988281 52.132812 132.867188 C 52.425781 133.335938 52.71875 133.746094 52.957031 134.214844 C 54.839844 137.09375 56.960938 139.796875 59.257812 142.261719 C 61.203125 144.375 63.265625 146.316406 65.445312 148.136719 C 66.683594 149.191406 67.980469 150.132812 69.332031 151.070312 C 69.921875 151.484375 70.511719 151.894531 71.160156 152.304688 C 72.457031 153.1875 73.8125 153.949219 75.226562 154.710938 C 75.226562 154.710938 75.285156 154.710938 75.285156 154.773438 C 77.992188 156.238281 80.761719 157.472656 83.648438 158.53125 C 87.714844 160.058594 91.957031 161.054688 96.316406 161.644531 C 100.96875 162.289062 105.5625 162.40625 110.21875 161.996094 C 115.050781 161.585938 119.761719 160.585938 124.355469 159.117188 C 133.015625 156.296875 140.910156 151.484375 147.507812 145.257812 C 150.808594 142.203125 153.636719 138.679688 156.167969 135.039062 C 158.820312 131.222656 160.882812 127.050781 162.589844 122.765625 C 164.300781 118.476562 165.417969 113.957031 166.066406 109.375 C 166.714844 104.617188 166.890625 99.859375 166.480469 95.042969 C 165.65625 85.882812 162.769531 76.957031 158.054688 69.027344 C 155.933594 65.269531 153.222656 61.746094 150.21875 58.515625 C 147.214844 55.285156 143.855469 52.464844 140.261719 49.882812 C 136.847656 47.472656 133.136719 45.417969 129.246094 43.773438 C 125.183594 42.070312 121 40.71875 116.640625 39.898438 C 113.046875 39.195312 109.453125 38.839844 105.800781 38.78125 C 105.683594 38.78125 105.5625 38.78125 105.386719 38.78125 C 105.269531 38.78125 105.210938 38.78125 105.09375 38.78125 C 102.796875 38.839844 100.496094 38.957031 98.140625 39.253906 Z M 112.164062 46.652344 C 116.933594 47.355469 121.589844 48.589844 126.007812 50.410156 C 130.367188 52.289062 134.429688 54.640625 138.203125 57.515625 C 141.855469 60.394531 145.152344 63.683594 148.039062 67.324219 C 150.925781 71.082031 153.28125 75.136719 155.167969 79.480469 C 156.996094 83.945312 158.289062 88.585938 158.9375 93.398438 C 159.527344 98.214844 159.527344 103.089844 158.9375 107.964844 C 158.230469 112.722656 156.933594 117.363281 155.109375 121.824219 C 153.222656 126.113281 150.867188 130.164062 148.039062 133.863281 C 145.152344 137.503906 141.855469 140.792969 138.203125 143.671875 C 134.429688 146.492188 130.367188 148.898438 126.066406 150.777344 C 121.589844 152.597656 116.933594 153.890625 112.101562 154.535156 C 107.273438 155.125 102.441406 155.125 97.609375 154.535156 C 93.132812 153.890625 88.773438 152.714844 84.53125 151.070312 C 84.238281 150.953125 83.945312 150.835938 83.707031 150.71875 C 82.707031 150.308594 81.703125 149.839844 80.761719 149.308594 C 80.703125 149.25 80.644531 149.25 80.585938 149.191406 C 80.527344 149.191406 80.527344 149.132812 80.46875 149.132812 C 80.410156 149.132812 80.410156 149.074219 80.351562 149.074219 C 77.285156 147.488281 74.339844 145.667969 71.570312 143.554688 C 68.921875 141.441406 66.445312 139.148438 64.207031 136.625 C 64.207031 136.625 64.207031 136.625 64.207031 136.566406 C 64.148438 136.507812 64.148438 136.507812 64.089844 136.449219 C 64.03125 136.390625 64.03125 136.390625 63.972656 136.332031 C 63.972656 136.332031 63.972656 136.273438 63.914062 136.273438 C 63.148438 135.449219 62.441406 134.570312 61.734375 133.6875 C 59.023438 130.105469 56.726562 126.230469 54.839844 122.117188 C 54.839844 122.117188 54.839844 122.058594 54.839844 122.058594 C 54.839844 122.058594 54.839844 122 54.78125 122 C 54.722656 121.882812 54.664062 121.707031 54.605469 121.589844 C 54.371094 121.0625 54.191406 120.589844 54.015625 120.0625 C 54.015625 120.003906 53.957031 119.945312 53.957031 119.886719 C 53.957031 119.886719 53.957031 119.886719 53.957031 119.828125 C 52.601562 116.246094 51.660156 112.605469 51.011719 108.847656 C 51.011719 108.847656 51.011719 108.785156 51.011719 108.785156 C 51.011719 108.726562 51.011719 108.667969 51.011719 108.667969 C 51.011719 108.609375 51.011719 108.609375 51.011719 108.550781 C 51.011719 108.550781 51.011719 108.492188 51.011719 108.492188 C 50.953125 108.257812 50.953125 107.964844 50.894531 107.730469 C 50.304688 102.855469 50.304688 97.980469 50.894531 93.164062 C 51.304688 90.582031 51.835938 87.996094 52.542969 85.53125 C 52.542969 85.472656 52.601562 85.414062 52.601562 85.355469 C 52.601562 85.296875 52.601562 85.238281 52.660156 85.238281 C 52.660156 85.238281 52.660156 85.179688 52.660156 85.179688 C 53.25 83.238281 53.898438 81.359375 54.664062 79.480469 C 56.550781 75.195312 58.90625 71.140625 61.792969 67.382812 C 62.734375 66.148438 63.738281 65.035156 64.796875 63.859375 C 64.855469 63.800781 64.855469 63.742188 64.914062 63.742188 C 64.914062 63.742188 64.914062 63.683594 64.972656 63.683594 C 65.03125 63.625 65.03125 63.625 65.09375 63.566406 C 65.09375 63.566406 65.152344 63.507812 65.152344 63.507812 C 65.152344 63.507812 65.210938 63.449219 65.210938 63.449219 C 65.269531 63.390625 65.269531 63.390625 65.328125 63.332031 C 65.328125 63.332031 65.386719 63.273438 65.386719 63.273438 C 65.445312 63.214844 65.445312 63.214844 65.503906 63.15625 C 65.503906 63.15625 65.503906 63.15625 65.5625 63.097656 C 65.621094 63.039062 65.679688 62.980469 65.679688 62.980469 C 67.449219 61.15625 69.332031 59.453125 71.277344 57.871094 C 71.335938 57.808594 71.394531 57.75 71.453125 57.75 C 71.511719 57.691406 71.570312 57.691406 71.632812 57.632812 C 75.402344 54.816406 79.464844 52.40625 83.765625 50.527344 C 84.296875 50.351562 84.769531 50.117188 85.296875 49.941406 C 85.359375 49.941406 85.359375 49.941406 85.417969 49.882812 C 85.476562 49.882812 85.476562 49.882812 85.535156 49.824219 C 88.832031 48.589844 92.191406 47.710938 95.609375 47.0625 C 95.609375 47.0625 95.667969 47.0625 95.667969 47.0625 C 95.667969 47.0625 95.667969 47.0625 95.726562 47.0625 C 96.375 46.945312 96.964844 46.828125 97.609375 46.769531 C 98.316406 46.652344 99.082031 46.59375 99.789062 46.535156 C 103.855469 46.066406 108.039062 46.125 112.164062 46.652344 Z M 155.050781 122.058594 C 154.992188 122.175781 154.992188 122.234375 154.933594 122.351562 C 154.992188 122.234375 155.050781 122.117188 155.050781 122.058594 Z M 155.050781 122.058594 " fill-opacity="1" fill-rule="nonzero"/></g><path fill="#000000" d="M 255.257812 43.890625 C 250.839844 44.949219 246.539062 46.652344 242.417969 48.648438 C 240.945312 49.355469 239.53125 50.175781 238.117188 50.996094 C 237.820312 51.175781 237.46875 51.410156 237.171875 51.585938 C 234.699219 53.113281 232.34375 54.875 230.105469 56.753906 C 228.808594 57.871094 227.511719 59.042969 226.273438 60.277344 C 223.210938 63.332031 220.441406 66.796875 218.085938 70.4375 C 216.90625 72.257812 215.847656 74.136719 214.847656 76.074219 C 214.667969 76.367188 214.550781 76.722656 214.375 77.015625 C 213.550781 78.777344 212.785156 80.539062 212.078125 82.359375 C 212.078125 82.417969 212.078125 82.417969 212.019531 82.476562 C 210.425781 86.585938 209.425781 90.933594 208.835938 95.28125 C 208.1875 99.976562 208.070312 104.675781 208.484375 109.433594 C 209.308594 118.535156 212.195312 127.34375 216.789062 135.214844 C 219.027344 139.03125 221.738281 142.554688 224.683594 145.785156 C 227.6875 149.074219 231.164062 151.953125 234.757812 154.535156 C 238.46875 157.179688 242.476562 159.234375 246.65625 160.996094 C 250.839844 162.699219 255.140625 163.933594 259.617188 164.695312 C 269.042969 166.28125 278.707031 165.695312 287.894531 162.992188 C 296.851562 160.351562 305.039062 155.535156 311.992188 149.308594 C 318.648438 143.261719 323.832031 135.683594 327.308594 127.402344 C 330.84375 118.945312 332.375 109.667969 331.902344 100.449219 C 331.433594 91.226562 328.78125 82.242188 324.363281 74.136719 C 322.242188 70.261719 319.648438 66.679688 316.761719 63.332031 C 313.875 59.925781 310.519531 56.988281 306.984375 54.285156 C 303.566406 51.703125 299.796875 49.53125 295.910156 47.710938 C 291.726562 45.828125 287.425781 44.363281 282.949219 43.421875 C 278.765625 42.542969 274.523438 42.128906 270.28125 42.128906 C 265.273438 42.128906 260.207031 42.71875 255.257812 43.890625 Z M 277.527344 49.882812 C 282.300781 50.585938 286.953125 51.820312 291.429688 53.640625 C 295.730469 55.519531 299.738281 57.871094 303.507812 60.628906 C 307.21875 63.507812 310.519531 66.855469 313.464844 70.496094 C 316.292969 74.195312 318.648438 78.25 320.535156 82.535156 C 322.359375 87 323.65625 91.695312 324.363281 96.453125 C 324.953125 101.328125 324.953125 106.203125 324.363281 111.019531 C 323.65625 115.777344 322.417969 120.414062 320.59375 124.878906 C 318.707031 129.164062 316.351562 133.21875 313.523438 136.976562 C 310.578125 140.675781 307.277344 143.964844 303.625 146.84375 C 299.855469 149.664062 295.730469 152.070312 291.429688 153.949219 C 286.953125 155.769531 282.359375 157.003906 277.585938 157.707031 C 272.757812 158.296875 267.867188 158.296875 262.976562 157.707031 C 258.265625 157.003906 253.609375 155.769531 249.191406 153.949219 C 244.832031 152.070312 240.765625 149.722656 236.996094 146.84375 C 233.285156 143.90625 229.984375 140.617188 227.039062 136.917969 C 224.210938 133.160156 221.855469 129.164062 219.972656 124.820312 C 218.144531 120.355469 216.90625 115.71875 216.199219 110.960938 C 215.613281 106.085938 215.613281 101.210938 216.199219 96.394531 C 216.847656 91.875 218.027344 87.46875 219.734375 83.238281 C 219.734375 83.238281 219.734375 83.238281 219.734375 83.179688 C 219.734375 83.179688 219.734375 83.121094 219.734375 83.121094 C 219.792969 82.945312 219.851562 82.769531 219.972656 82.59375 C 220.324219 81.773438 220.679688 80.949219 221.089844 80.1875 C 221.089844 80.1875 221.089844 80.128906 221.089844 80.128906 C 221.089844 80.070312 221.148438 80.011719 221.148438 79.953125 C 222.796875 76.605469 224.742188 73.433594 227.039062 70.4375 C 229.925781 66.796875 233.285156 63.449219 236.9375 60.570312 C 237.054688 60.453125 237.171875 60.394531 237.292969 60.277344 C 237.292969 60.277344 237.351562 60.277344 237.351562 60.21875 C 237.410156 60.21875 237.410156 60.160156 237.46875 60.160156 C 240.945312 57.632812 244.65625 55.460938 248.601562 53.699219 C 248.660156 53.699219 248.71875 53.640625 248.777344 53.640625 C 248.777344 53.640625 248.835938 53.640625 248.835938 53.582031 C 248.898438 53.582031 248.898438 53.523438 248.957031 53.523438 C 249.015625 53.523438 249.074219 53.464844 249.074219 53.464844 C 249.25 53.40625 249.425781 53.347656 249.605469 53.230469 C 253.902344 51.527344 258.382812 50.351562 262.976562 49.648438 C 267.808594 49.292969 272.695312 49.292969 277.527344 49.882812 Z M 277.527344 49.882812 " fill-opacity="1" fill-rule="nonzero"/><path fill="#000000" d="M 185.390625 79.890625 C 183.386719 80.011719 181.324219 80.304688 179.378906 80.832031 C 178.675781 81.007812 178.027344 81.183594 177.320312 81.417969 C 175.492188 82.007812 173.667969 82.886719 172.015625 83.828125 C 171.308594 84.238281 170.601562 84.707031 169.953125 85.179688 C 169.953125 85.179688 169.894531 85.238281 169.894531 85.238281 C 169.835938 85.296875 169.777344 85.355469 169.660156 85.414062 C 169.070312 85.882812 168.480469 86.292969 167.894531 86.824219 C 165.773438 88.527344 164.0625 90.582031 162.472656 92.753906 C 161.472656 94.222656 160.589844 95.75 159.882812 97.394531 C 159.882812 97.394531 159.882812 97.453125 159.820312 97.453125 C 159.820312 97.453125 159.820312 97.511719 159.820312 97.511719 C 159.820312 97.570312 159.761719 97.628906 159.761719 97.628906 C 159.585938 97.921875 159.46875 98.214844 159.410156 98.507812 C 159.410156 98.566406 159.351562 98.566406 159.351562 98.628906 C 158.996094 99.507812 159.292969 100.683594 159.703125 101.445312 C 160.175781 102.269531 161 102.855469 161.882812 103.148438 C 162.828125 103.382812 163.886719 103.265625 164.710938 102.796875 C 164.949219 102.621094 165.183594 102.386719 165.476562 102.210938 C 165.890625 101.738281 166.242188 101.269531 166.421875 100.683594 C 167.1875 98.980469 168.128906 97.394531 169.246094 95.867188 C 170.425781 94.398438 171.78125 93.046875 173.253906 91.875 C 174.785156 90.757812 176.433594 89.816406 178.144531 88.996094 C 179.96875 88.289062 181.796875 87.761719 183.742188 87.46875 C 185.742188 87.234375 187.6875 87.234375 189.691406 87.46875 C 190.867188 87.644531 192.046875 87.9375 193.167969 88.289062 C 193.226562 88.289062 193.226562 88.289062 193.285156 88.289062 C 193.285156 88.289062 193.34375 88.289062 193.34375 88.289062 C 193.992188 88.46875 194.699219 88.703125 195.347656 88.996094 C 197.113281 89.757812 198.761719 90.757812 200.292969 91.875 C 200.414062 91.992188 200.589844 92.109375 200.707031 92.226562 C 202.003906 93.339844 203.179688 94.515625 204.242188 95.808594 C 205.183594 97.101562 206.066406 98.507812 206.773438 99.917969 C 206.773438 99.917969 206.773438 99.976562 206.832031 99.976562 C 206.953125 100.210938 207.070312 100.449219 207.1875 100.742188 C 207.660156 101.972656 208.070312 103.148438 208.367188 104.441406 C 208.542969 105.085938 208.660156 105.734375 208.777344 106.4375 C 208.835938 106.964844 208.894531 107.554688 208.894531 108.082031 C 208.894531 108.082031 208.894531 108.140625 208.894531 108.140625 C 208.894531 108.199219 208.894531 108.257812 208.894531 108.316406 C 208.894531 108.316406 208.894531 108.375 208.894531 108.375 C 208.894531 108.433594 208.894531 108.492188 208.894531 108.550781 C 208.894531 108.550781 208.894531 108.609375 208.894531 108.609375 C 208.894531 108.667969 208.894531 108.726562 208.894531 108.785156 C 208.894531 108.785156 208.894531 108.847656 208.894531 108.847656 C 208.894531 108.90625 208.894531 108.964844 208.894531 109.023438 C 208.894531 109.023438 208.894531 109.023438 208.894531 109.082031 C 208.894531 109.140625 208.894531 109.199219 208.894531 109.316406 C 208.894531 109.375 208.894531 109.492188 208.894531 109.550781 C 208.894531 111.546875 210.605469 113.25 212.605469 113.25 C 214.609375 113.25 216.257812 111.605469 216.320312 109.550781 C 216.320312 106.730469 215.964844 103.855469 215.140625 101.09375 C 215.140625 101.09375 215.140625 101.035156 215.140625 101.035156 C 214.964844 100.449219 214.785156 99.800781 214.550781 99.214844 C 214.078125 97.980469 213.550781 96.746094 212.902344 95.632812 C 212.429688 94.75 211.898438 93.8125 211.3125 92.988281 C 210.425781 91.695312 209.425781 90.40625 208.304688 89.289062 C 208.1875 89.171875 208.070312 88.996094 207.953125 88.878906 C 207.597656 88.527344 207.246094 88.171875 206.832031 87.820312 C 205.65625 86.703125 204.359375 85.707031 203.003906 84.824219 C 202.121094 84.238281 201.238281 83.710938 200.292969 83.296875 C 199.882812 83.0625 199.46875 82.886719 199 82.710938 C 198.820312 82.652344 198.644531 82.535156 198.46875 82.476562 C 196.9375 81.832031 195.347656 81.300781 193.695312 80.890625 C 193.167969 80.773438 192.636719 80.65625 192.046875 80.539062 C 190.808594 80.304688 189.511719 80.1875 188.21875 80.128906 C 188.160156 80.128906 188.039062 80.128906 187.980469 80.128906 C 187.628906 80.128906 187.214844 80.128906 186.863281 80.128906 C 186.332031 79.832031 185.859375 79.832031 185.390625 79.890625 Z M 185.390625 79.890625 " fill-opacity="1" fill-rule="nonzero"/></svg>