<svg xmlns="http://www.w3.org/2000/svg" xmlns:xlink="http://www.w3.org/1999/xlink" width="1080" zoomAndPan="magnify" viewBox="0 0 810 809.999993" height="1080" preserveAspectRatio="xMidYMid meet" version="1.0"><defs><g/><clipPath id="948bc17d1f"><rect x="0" width="642" y="0" height="810"/></clipPath><clipPath id="4937977c60"><path d="M 397 512 L 788.285156 512 L 788.285156 774.339844 L 397 774.339844 Z M 397 512 " clip-rule="nonzero"/></clipPath><clipPath id="95d37dee88"><path d="M 21.785156 512 L 414 512 L 414 774.339844 L 21.785156 774.339844 Z M 21.785156 512 " clip-rule="nonzero"/></clipPath><clipPath id="bfdf20a029"><path d="M 92.679688 83.769531 L 360 83.769531 L 360 352 L 92.679688 352 Z M 92.679688 83.769531 " clip-rule="nonzero"/></clipPath></defs><rect x="-81" width="972" fill="#ffffff" y="-80.999999" height="971.999992" fill-opacity="1"/><rect x="-81" width="972" fill="#ffffff" y="-80.999999" height="971.999992" fill-opacity="1"/><g transform="matrix(1, 0, 0, 1, 82, 0.000000000000039746)"><g clip-path="url(#948bc17d1f)"><g fill="#ff914d" fill-opacity="1"><g transform="translate(5.945206, 760.507055)"><g><path d="M 440.578125 -371.28125 C 466.773438 -367.144531 490.734375 -356.457031 512.453125 -339.21875 C 534.171875 -321.976562 551.40625 -300.601562 564.15625 -275.09375 C 576.914062 -249.582031 583.296875 -222.347656 583.296875 -193.390625 C 583.296875 -156.847656 573.984375 -123.925781 555.359375 -94.625 C 536.742188 -65.320312 509.679688 -42.222656 474.171875 -25.328125 C 438.671875 -8.441406 396.789062 0 348.53125 0 L 79.640625 0 L 79.640625 -720.84375 L 338.1875 -720.84375 C 387.132812 -720.84375 428.84375 -712.738281 463.3125 -696.53125 C 497.789062 -680.332031 523.648438 -658.441406 540.890625 -630.859375 C 558.128906 -603.285156 566.75 -572.257812 566.75 -537.78125 C 566.75 -495.039062 555.195312 -459.707031 532.09375 -431.78125 C 509 -403.851562 478.492188 -383.6875 440.578125 -371.28125 Z M 173.75 -409.546875 L 331.984375 -409.546875 C 376.109375 -409.546875 410.234375 -419.882812 434.359375 -440.5625 C 458.492188 -461.25 470.5625 -489.863281 470.5625 -526.40625 C 470.5625 -562.945312 458.492188 -591.5625 434.359375 -612.25 C 410.234375 -632.9375 375.414062 -643.28125 329.90625 -643.28125 L 173.75 -643.28125 Z M 340.25 -77.5625 C 387.132812 -77.5625 423.675781 -88.59375 449.875 -110.65625 C 476.070312 -132.71875 489.171875 -163.398438 489.171875 -202.703125 C 489.171875 -242.691406 475.378906 -274.234375 447.796875 -297.328125 C 420.222656 -320.429688 383.34375 -331.984375 337.15625 -331.984375 L 173.75 -331.984375 L 173.75 -77.5625 Z M 340.25 -77.5625 "/></g></g></g></g></g><g clip-path="url(#4937977c60)"><path fill="#000000" d="M 403.394531 562.4375 C 419.5625 560.789062 445.074219 552.808594 479.925781 538.492188 C 460.75 560.996094 450.390625 575.363281 448.847656 581.59375 C 444.054688 596.019531 443.042969 610.53125 445.8125 625.128906 C 452.410156 647.523438 473.5 656.492188 509.082031 652.035156 C 548.0625 645.984375 589.441406 632.238281 633.21875 610.796875 C 681.945312 587.445312 731.761719 555.085938 782.660156 513.71875 C 786.445312 512.074219 788.382812 512.414062 788.476562 514.738281 C 782.507812 532.023438 752.679688 567.867188 698.988281 622.269531 C 663.371094 656.636719 626.429688 687.296875 588.164062 714.25 C 532.617188 753.238281 469.082031 773.1875 397.5625 774.097656 Z M 403.394531 562.4375 " fill-opacity="1" fill-rule="nonzero"/></g><g clip-path="url(#95d37dee88)"><path fill="#000000" d="M 407.070312 562.433594 C 390.902344 560.800781 365.382812 552.835938 330.523438 538.542969 C 349.714844 561.035156 360.082031 575.394531 361.628906 581.621094 C 366.433594 596.042969 367.453125 610.554688 364.695312 625.15625 C 358.109375 647.554688 337.027344 656.539062 301.441406 652.101562 C 262.457031 646.078125 221.070312 632.359375 177.277344 610.945312 C 128.535156 587.625 78.699219 555.296875 27.769531 513.964844 C 23.988281 512.324219 22.050781 512.664062 21.957031 514.988281 C 27.933594 532.269531 57.789062 568.09375 111.515625 622.460938 C 147.15625 656.804688 184.117188 687.441406 222.398438 714.367188 C 277.972656 753.320312 341.519531 773.230469 413.039062 774.09375 Z M 407.070312 562.433594 " fill-opacity="1" fill-rule="nonzero"/></g><g clip-path="url(#bfdf20a029)"><path fill="#000000" d="M 211.871094 84.789062 C 208.054688 85.167969 204.242188 85.804688 200.425781 86.566406 C 199.15625 86.820312 197.757812 87.074219 196.484375 87.328125 C 194.324219 87.710938 192.164062 88.347656 190.003906 88.984375 C 182.753906 91.015625 175.507812 93.8125 168.644531 96.992188 C 168.515625 97.117188 168.390625 97.117188 168.132812 97.246094 C 165.972656 98.261719 163.9375 99.28125 161.90625 100.425781 C 154.277344 104.621094 147.15625 109.703125 140.546875 115.171875 C 135.585938 119.238281 131.011719 123.816406 126.6875 128.519531 C 126.050781 129.28125 125.289062 130.046875 124.652344 130.808594 C 120.585938 135.640625 116.769531 140.722656 113.464844 146.0625 C 110.796875 150.132812 108.507812 154.453125 106.34375 158.902344 C 104.4375 162.84375 102.785156 166.785156 101.261719 170.855469 C 100.242188 173.777344 99.226562 176.703125 98.335938 179.625 C 95.539062 188.90625 94.011719 198.441406 93.25 208.105469 C 92.996094 210.644531 92.996094 213.0625 92.867188 215.605469 C 92.867188 215.859375 92.867188 215.984375 92.867188 216.238281 C 92.742188 224.25 93.503906 232.257812 94.777344 240.140625 C 95.15625 242.808594 95.792969 245.605469 96.429688 248.277344 C 97.445312 252.597656 98.71875 256.792969 100.117188 260.988281 C 100.625 262.515625 101.261719 264.039062 101.769531 265.566406 C 102.785156 267.980469 103.800781 270.523438 104.820312 272.8125 C 105.074219 273.449219 105.328125 274.085938 105.710938 274.71875 C 107.742188 279.042969 110.03125 283.363281 112.574219 287.433594 C 113.210938 288.449219 113.847656 289.339844 114.355469 290.355469 C 118.421875 296.585938 123 302.433594 127.957031 307.773438 C 132.15625 312.351562 136.605469 316.546875 141.308594 320.488281 C 143.976562 322.773438 146.773438 324.808594 149.699219 326.84375 C 150.972656 327.734375 152.242188 328.625 153.640625 329.511719 C 156.4375 331.421875 159.363281 333.074219 162.414062 334.726562 C 162.414062 334.726562 162.539062 334.726562 162.539062 334.851562 C 168.390625 338.03125 174.363281 340.699219 180.59375 342.988281 C 189.367188 346.292969 198.519531 348.457031 207.929688 349.726562 C 217.972656 351.125 227.890625 351.378906 237.933594 350.488281 C 248.359375 349.601562 258.53125 347.4375 268.445312 344.261719 C 287.136719 338.15625 304.171875 327.734375 318.410156 314.257812 C 325.53125 307.648438 331.632812 300.019531 337.101562 292.136719 C 342.820312 283.875 347.273438 274.847656 350.957031 265.566406 C 354.644531 256.285156 357.0625 246.496094 358.460938 236.582031 C 359.859375 226.285156 360.238281 215.984375 359.351562 205.5625 C 357.570312 185.730469 351.339844 166.40625 341.167969 149.242188 C 336.59375 141.105469 330.742188 133.476562 324.261719 126.484375 C 317.777344 119.492188 310.527344 113.390625 302.773438 107.796875 C 295.398438 102.585938 287.390625 98.136719 279 94.574219 C 270.226562 90.890625 261.199219 87.964844 251.792969 86.1875 C 244.035156 84.660156 236.28125 83.898438 228.398438 83.769531 C 228.144531 83.769531 227.890625 83.769531 227.507812 83.769531 C 227.253906 83.769531 227.125 83.769531 226.871094 83.769531 C 221.914062 83.898438 216.957031 84.152344 211.871094 84.789062 Z M 242.128906 100.804688 C 252.425781 102.332031 262.472656 105 272.007812 108.941406 C 281.414062 113.011719 290.1875 118.09375 298.324219 124.324219 C 306.207031 130.554688 313.324219 137.671875 319.554688 145.554688 C 325.785156 153.691406 330.871094 162.464844 334.941406 171.871094 C 338.878906 181.535156 341.679688 191.578125 343.078125 202 C 344.347656 212.425781 344.347656 222.976562 343.078125 233.53125 C 341.550781 243.828125 338.753906 253.871094 334.8125 263.53125 C 330.742188 272.8125 325.660156 281.585938 319.554688 289.59375 C 313.324219 297.476562 306.207031 304.59375 298.324219 310.824219 C 290.1875 316.925781 281.414062 322.140625 272.132812 326.207031 C 262.472656 330.148438 252.425781 332.945312 242 334.34375 C 231.578125 335.617188 221.152344 335.617188 210.726562 334.34375 C 201.0625 332.945312 191.65625 330.402344 182.5 326.84375 C 181.867188 326.589844 181.230469 326.335938 180.722656 326.082031 C 178.558594 325.191406 176.398438 324.171875 174.363281 323.03125 C 174.238281 322.902344 174.109375 322.902344 173.984375 322.773438 C 173.855469 322.773438 173.855469 322.648438 173.726562 322.648438 C 173.601562 322.648438 173.601562 322.519531 173.472656 322.519531 C 166.863281 319.089844 160.507812 315.148438 154.53125 310.570312 C 148.808594 305.992188 143.46875 301.035156 138.636719 295.570312 C 138.636719 295.570312 138.636719 295.570312 138.636719 295.441406 C 138.511719 295.316406 138.511719 295.316406 138.382812 295.1875 C 138.257812 295.0625 138.257812 295.0625 138.128906 294.933594 C 138.128906 294.933594 138.128906 294.804688 138.003906 294.804688 C 136.351562 293.027344 134.824219 291.121094 133.296875 289.210938 C 127.449219 281.457031 122.492188 273.066406 118.421875 264.167969 C 118.421875 264.167969 118.421875 264.039062 118.421875 264.039062 C 118.421875 264.039062 118.421875 263.914062 118.296875 263.914062 C 118.167969 263.660156 118.042969 263.277344 117.914062 263.023438 C 117.40625 261.878906 117.023438 260.863281 116.644531 259.71875 C 116.644531 259.589844 116.515625 259.464844 116.515625 259.335938 C 116.515625 259.335938 116.515625 259.335938 116.515625 259.210938 C 113.59375 251.453125 111.558594 243.574219 110.160156 235.4375 C 110.160156 235.4375 110.160156 235.308594 110.160156 235.308594 C 110.160156 235.183594 110.160156 235.054688 110.160156 235.054688 C 110.160156 234.929688 110.160156 234.929688 110.160156 234.800781 C 110.160156 234.800781 110.160156 234.671875 110.160156 234.671875 C 110.03125 234.164062 110.03125 233.53125 109.90625 233.019531 C 108.632812 222.46875 108.632812 211.917969 109.90625 201.492188 C 110.796875 195.898438 111.9375 190.304688 113.464844 184.964844 C 113.464844 184.839844 113.59375 184.710938 113.59375 184.585938 C 113.59375 184.457031 113.59375 184.332031 113.71875 184.332031 C 113.71875 184.332031 113.71875 184.203125 113.71875 184.203125 C 114.992188 180.007812 116.390625 175.941406 118.042969 171.871094 C 122.109375 162.589844 127.195312 153.820312 133.425781 145.683594 C 135.460938 143.011719 137.621094 140.597656 139.910156 138.054688 C 140.035156 137.925781 140.035156 137.800781 140.164062 137.800781 C 140.164062 137.800781 140.164062 137.671875 140.292969 137.671875 C 140.417969 137.546875 140.417969 137.546875 140.546875 137.417969 C 140.546875 137.417969 140.671875 137.292969 140.671875 137.292969 C 140.671875 137.292969 140.800781 137.164062 140.800781 137.164062 C 140.925781 137.039062 140.925781 137.039062 141.054688 136.910156 C 141.054688 136.910156 141.179688 136.785156 141.179688 136.785156 C 141.308594 136.65625 141.308594 136.65625 141.433594 136.527344 C 141.433594 136.527344 141.433594 136.527344 141.5625 136.402344 C 141.691406 136.273438 141.816406 136.148438 141.816406 136.148438 C 145.632812 132.207031 149.699219 128.519531 153.894531 125.085938 C 154.023438 124.960938 154.148438 124.832031 154.277344 124.832031 C 154.402344 124.707031 154.53125 124.707031 154.65625 124.578125 C 162.792969 118.476562 171.566406 113.265625 180.847656 109.195312 C 181.992188 108.816406 183.007812 108.304688 184.152344 107.925781 C 184.28125 107.925781 184.28125 107.925781 184.40625 107.796875 C 184.535156 107.796875 184.535156 107.796875 184.664062 107.671875 C 191.78125 105 199.027344 103.09375 206.402344 101.695312 C 206.402344 101.695312 206.53125 101.695312 206.53125 101.695312 C 206.53125 101.695312 206.53125 101.695312 206.65625 101.695312 C 208.054688 101.441406 209.328125 101.1875 210.726562 101.058594 C 212.25 100.804688 213.902344 100.679688 215.429688 100.550781 C 224.203125 99.535156 233.230469 99.660156 242.128906 100.804688 Z M 334.683594 264.039062 C 334.558594 264.296875 334.558594 264.421875 334.429688 264.675781 C 334.558594 264.421875 334.683594 264.167969 334.683594 264.039062 Z M 334.683594 264.039062 " fill-opacity="1" fill-rule="nonzero"/></g><path fill="#000000" d="M 550.945312 94.832031 C 541.410156 97.117188 532.128906 100.804688 523.230469 105.128906 C 520.050781 106.652344 517 108.433594 513.949219 110.214844 C 513.3125 110.59375 512.550781 111.101562 511.914062 111.484375 C 506.574219 114.789062 501.492188 118.605469 496.660156 122.671875 C 493.863281 125.085938 491.066406 127.628906 488.394531 130.300781 C 481.785156 136.910156 475.808594 144.410156 470.722656 152.292969 C 468.179688 156.234375 465.890625 160.300781 463.730469 164.496094 C 463.347656 165.132812 463.09375 165.894531 462.714844 166.53125 C 460.933594 170.347656 459.28125 174.160156 457.753906 178.101562 C 457.753906 178.226562 457.753906 178.226562 457.628906 178.355469 C 454.195312 187.253906 452.035156 196.660156 450.761719 206.070312 C 449.363281 216.238281 449.109375 226.410156 450 236.707031 C 451.78125 256.414062 458.007812 275.484375 467.925781 292.519531 C 472.757812 300.78125 478.605469 308.410156 484.960938 315.402344 C 491.445312 322.519531 498.949219 328.75 506.703125 334.34375 C 514.710938 340.066406 523.359375 344.515625 532.386719 348.328125 C 541.410156 352.015625 550.691406 354.683594 560.355469 356.335938 C 580.699219 359.769531 601.546875 358.5 621.382812 352.652344 C 640.707031 346.929688 658.378906 336.503906 673.382812 323.03125 C 687.746094 309.933594 698.9375 293.535156 706.4375 275.609375 C 714.066406 257.304688 717.371094 237.214844 716.355469 217.257812 C 715.335938 197.296875 709.617188 177.847656 700.078125 160.300781 C 695.503906 151.910156 689.910156 144.15625 683.679688 136.910156 C 677.449219 129.535156 670.203125 123.179688 662.574219 117.332031 C 655.199219 111.738281 647.0625 107.035156 638.671875 103.09375 C 629.644531 99.027344 620.363281 95.847656 610.703125 93.8125 C 601.675781 91.90625 592.519531 91.015625 583.367188 91.015625 C 572.558594 91.015625 561.625 92.289062 550.945312 94.832031 Z M 599.003906 107.796875 C 609.304688 109.324219 619.347656 111.992188 629.007812 115.933594 C 638.289062 120.003906 646.9375 125.085938 655.074219 131.0625 C 663.082031 137.292969 670.203125 144.539062 676.558594 152.421875 C 682.660156 160.429688 687.746094 169.203125 691.816406 178.480469 C 695.757812 188.144531 698.554688 198.316406 700.078125 208.613281 C 701.351562 219.164062 701.351562 229.714844 700.078125 240.140625 C 698.554688 250.4375 695.882812 260.480469 691.941406 270.144531 C 687.875 279.421875 682.789062 288.195312 676.6875 296.332031 C 670.328125 304.339844 663.210938 311.460938 655.328125 317.691406 C 647.191406 323.792969 638.289062 329.003906 629.007812 333.074219 C 619.347656 337.015625 609.429688 339.683594 599.132812 341.210938 C 588.707031 342.480469 578.15625 342.480469 567.601562 341.210938 C 557.429688 339.683594 547.386719 337.015625 537.851562 333.074219 C 528.445312 329.003906 519.671875 323.917969 511.535156 317.691406 C 503.523438 311.332031 496.40625 304.214844 490.046875 296.203125 C 483.945312 288.070312 478.859375 279.421875 474.792969 270.015625 C 470.851562 260.355469 468.179688 250.3125 466.65625 240.011719 C 465.382812 229.460938 465.382812 218.910156 466.65625 208.484375 C 468.054688 198.695312 470.597656 189.160156 474.28125 180.007812 C 474.28125 180.007812 474.28125 180.007812 474.28125 179.878906 C 474.28125 179.878906 474.28125 179.753906 474.28125 179.753906 C 474.410156 179.371094 474.535156 178.992188 474.792969 178.609375 C 475.554688 176.828125 476.316406 175.050781 477.207031 173.398438 C 477.207031 173.398438 477.207031 173.269531 477.207031 173.269531 C 477.207031 173.144531 477.335938 173.015625 477.335938 172.886719 C 480.894531 165.640625 485.089844 158.777344 490.046875 152.292969 C 496.277344 144.410156 503.523438 137.164062 511.40625 130.933594 C 511.660156 130.679688 511.914062 130.554688 512.167969 130.300781 C 512.167969 130.300781 512.296875 130.300781 512.296875 130.171875 C 512.425781 130.171875 512.425781 130.046875 512.550781 130.046875 C 520.050781 124.578125 528.0625 119.875 536.582031 116.0625 C 536.707031 116.0625 536.835938 115.933594 536.960938 115.933594 C 536.960938 115.933594 537.089844 115.933594 537.089844 115.808594 C 537.214844 115.808594 537.214844 115.679688 537.34375 115.679688 C 537.46875 115.679688 537.597656 115.550781 537.597656 115.550781 C 537.980469 115.425781 538.359375 115.296875 538.742188 115.042969 C 548.023438 111.355469 557.683594 108.816406 567.601562 107.289062 C 578.027344 106.527344 588.578125 106.527344 599.003906 107.796875 Z M 599.003906 107.796875 " fill-opacity="1" fill-rule="nonzero"/><path fill="#000000" d="M 400.160156 172.761719 C 395.839844 173.015625 391.390625 173.652344 387.191406 174.796875 C 385.667969 175.175781 384.269531 175.558594 382.742188 176.066406 C 378.800781 177.339844 374.859375 179.246094 371.300781 181.277344 C 369.773438 182.167969 368.25 183.1875 366.851562 184.203125 C 366.851562 184.203125 366.722656 184.332031 366.722656 184.332031 C 366.597656 184.457031 366.46875 184.585938 366.214844 184.710938 C 364.945312 185.730469 363.671875 186.617188 362.402344 187.761719 C 357.824219 191.449219 354.136719 195.898438 350.703125 200.601562 C 348.542969 203.78125 346.636719 207.085938 345.109375 210.644531 C 345.109375 210.644531 345.109375 210.773438 344.984375 210.773438 C 344.984375 210.773438 344.984375 210.902344 344.984375 210.902344 C 344.984375 211.027344 344.855469 211.15625 344.855469 211.15625 C 344.476562 211.789062 344.21875 212.425781 344.09375 213.0625 C 344.09375 213.1875 343.964844 213.1875 343.964844 213.316406 C 343.203125 215.222656 343.839844 217.765625 344.730469 219.417969 C 345.746094 221.199219 347.527344 222.46875 349.433594 223.105469 C 351.46875 223.613281 353.757812 223.359375 355.535156 222.34375 C 356.042969 221.960938 356.554688 221.453125 357.1875 221.070312 C 358.078125 220.054688 358.839844 219.035156 359.222656 217.765625 C 360.875 214.078125 362.910156 210.644531 365.324219 207.339844 C 367.867188 204.164062 370.792969 201.238281 373.972656 198.695312 C 377.277344 196.28125 380.835938 194.246094 384.523438 192.464844 C 388.464844 190.941406 392.40625 189.796875 396.601562 189.160156 C 400.925781 188.652344 405.121094 188.652344 409.441406 189.160156 C 411.984375 189.542969 414.527344 190.179688 416.945312 190.941406 C 417.070312 190.941406 417.070312 190.941406 417.199219 190.941406 C 417.199219 190.941406 417.324219 190.941406 417.324219 190.941406 C 418.722656 191.324219 420.25 191.832031 421.648438 192.464844 C 425.460938 194.121094 429.023438 196.28125 432.328125 198.695312 C 432.582031 198.949219 432.964844 199.203125 433.21875 199.457031 C 436.015625 201.875 438.558594 204.417969 440.84375 207.214844 C 442.878906 210.011719 444.785156 213.0625 446.3125 216.113281 C 446.3125 216.113281 446.3125 216.238281 446.441406 216.238281 C 446.695312 216.75 446.949219 217.257812 447.203125 217.894531 C 448.21875 220.5625 449.109375 223.105469 449.746094 225.902344 C 450.125 227.300781 450.378906 228.699219 450.636719 230.222656 C 450.761719 231.367188 450.890625 232.640625 450.890625 233.785156 C 450.890625 233.785156 450.890625 233.910156 450.890625 233.910156 C 450.890625 234.039062 450.890625 234.164062 450.890625 234.292969 C 450.890625 234.292969 450.890625 234.417969 450.890625 234.417969 C 450.890625 234.546875 450.890625 234.671875 450.890625 234.800781 C 450.890625 234.800781 450.890625 234.929688 450.890625 234.929688 C 450.890625 235.054688 450.890625 235.183594 450.890625 235.308594 C 450.890625 235.308594 450.890625 235.4375 450.890625 235.4375 C 450.890625 235.5625 450.890625 235.691406 450.890625 235.816406 C 450.890625 235.816406 450.890625 235.816406 450.890625 235.945312 C 450.890625 236.070312 450.890625 236.199219 450.890625 236.453125 C 450.890625 236.582031 450.890625 236.835938 450.890625 236.960938 C 450.890625 241.285156 454.578125 244.972656 458.898438 244.972656 C 463.222656 244.972656 466.78125 241.410156 466.910156 236.960938 C 466.910156 230.859375 466.144531 224.628906 464.367188 218.65625 C 464.367188 218.65625 464.367188 218.527344 464.367188 218.527344 C 463.984375 217.257812 463.601562 215.859375 463.09375 214.585938 C 462.078125 211.917969 460.933594 209.246094 459.535156 206.832031 C 458.519531 204.925781 457.375 202.890625 456.101562 201.113281 C 454.195312 198.316406 452.035156 195.519531 449.617188 193.101562 C 449.363281 192.847656 449.109375 192.464844 448.855469 192.210938 C 448.09375 191.449219 447.328125 190.6875 446.441406 189.925781 C 443.898438 187.507812 441.101562 185.347656 438.175781 183.441406 C 436.269531 182.167969 434.363281 181.023438 432.328125 180.136719 C 431.4375 179.625 430.546875 179.246094 429.53125 178.863281 C 429.148438 178.738281 428.765625 178.480469 428.386719 178.355469 C 425.082031 176.957031 421.648438 175.8125 418.085938 174.921875 C 416.945312 174.667969 415.800781 174.414062 414.527344 174.160156 C 411.859375 173.652344 409.0625 173.398438 406.265625 173.269531 C 406.136719 173.269531 405.882812 173.269531 405.753906 173.269531 C 404.992188 173.269531 404.101562 173.269531 403.339844 173.269531 C 402.195312 172.632812 401.179688 172.632812 400.160156 172.761719 Z M 400.160156 172.761719 " fill-opacity="1" fill-rule="nonzero"/></svg>